<?xml version="1.0" encoding="utf-8" standalone="no"?>
<!DOCTYPE svg PUBLIC "-//W3C//DTD SVG 1.1//EN"
  "http://www.w3.org/Graphics/SVG/1.1/DTD/svg11.dtd">
<svg xmlns:xlink="http://www.w3.org/1999/xlink" width="741.471755pt" height="722.88pt" viewBox="0 0 741.471755 722.88" xmlns="http://www.w3.org/2000/svg" version="1.1">
 <metadata>
  <rdf:RDF xmlns:dc="http://purl.org/dc/elements/1.1/" xmlns:cc="http://creativecommons.org/ns#" xmlns:rdf="http://www.w3.org/1999/02/22-rdf-syntax-ns#">
   <cc:Work>
    <dc:type rdf:resource="http://purl.org/dc/dcmitype/StillImage"/>
    <dc:date>2026-06-11T13:54:45.234754</dc:date>
    <dc:format>image/svg+xml</dc:format>
    <dc:creator>
     <cc:Agent>
      <dc:title>Matplotlib v3.10.0, https://matplotlib.org/</dc:title>
     </cc:Agent>
    </dc:creator>
   </cc:Work>
  </rdf:RDF>
 </metadata>
 <defs>
  <style type="text/css">*{stroke-linejoin: round; stroke-linecap: butt}</style>
 </defs>
 <g id="figure_1">
  <g id="patch_1">
   <path d="M 0 722.88 
L 741.471755 722.88 
L 741.471755 0 
L 0 0 
z
" style="fill: #ffffff"/>
  </g>
  <g id="axes_1">
   <g id="patch_2">
    <path d="M 7.2 715.68 
L 467.778462 715.68 
L 467.778462 50.4 
L 7.2 50.4 
z
" style="fill: #ffffff"/>
   </g>
   <g id="line2d_1">
    <path d="M 442.190769 383.04 
L 32.787692 383.04 
L 32.787692 75.987692 
L 442.190769 75.987692 
L 442.190769 690.092308 
L 32.787692 690.092308 
L 32.787692 383.04 
" clip-path="url(#p08e2867b19)" style="fill: none; stroke: #b8b8b8; stroke-width: 1.5; stroke-linecap: square"/>
   </g>
   <g id="line2d_2">
    <path d="M 350.075077 75.987692 
L 350.075077 168.103385 
L 124.903385 168.103385 
L 124.903385 75.987692 
" clip-path="url(#p08e2867b19)" style="fill: none; stroke: #b8b8b8; stroke-width: 1.5; stroke-linecap: square"/>
   </g>
   <g id="line2d_3">
    <path d="M 350.075077 690.092308 
L 350.075077 597.976615 
L 124.903385 597.976615 
L 124.903385 690.092308 
" clip-path="url(#p08e2867b19)" style="fill: none; stroke: #b8b8b8; stroke-width: 1.5; stroke-linecap: square"/>
   </g>
   <g id="line2d_4">
    <path d="M 288.664615 75.987692 
L 288.664615 106.692923 
L 186.313846 106.692923 
L 186.313846 75.987692 
" clip-path="url(#p08e2867b19)" style="fill: none; stroke: #b8b8b8; stroke-width: 1.5; stroke-linecap: square"/>
   </g>
   <g id="line2d_5">
    <path d="M 288.664615 690.092308 
L 288.664615 659.387077 
L 186.313846 659.387077 
L 186.313846 690.092308 
" clip-path="url(#p08e2867b19)" style="fill: none; stroke: #b8b8b8; stroke-width: 1.5; stroke-linecap: square"/>
   </g>
   <g id="patch_3">
    <path d="M 237.489231 434.215385 
C 251.061101 434.215385 264.07893 428.823223 273.675692 419.226461 
C 283.272454 409.6297 288.664615 396.611871 288.664615 383.04 
C 288.664615 369.468129 283.272454 356.4503 273.675692 346.853539 
C 264.07893 337.256777 251.061101 331.864615 237.489231 331.864615 
C 223.91736 331.864615 210.899531 337.256777 201.302769 346.853539 
C 191.706008 356.4503 186.313846 369.468129 186.313846 383.04 
C 186.313846 396.611871 191.706008 409.6297 201.302769 419.226461 
C 210.899531 428.823223 223.91736 434.215385 237.489231 434.215385 
L 237.489231 434.215385 
z
" clip-path="url(#p08e2867b19)" style="fill: none; stroke: #b8b8b8; stroke-width: 1.5; stroke-linejoin: miter"/>
   </g>
   <g id="patch_4">
    <path d="M 278.386571 597.919409 
C 273.618335 591.580243 267.440883 586.435668 260.343557 582.893204 
C 253.24623 579.35074 245.421513 577.506462 237.489231 577.506462 
C 229.556949 577.506462 221.732232 579.35074 214.634905 582.893204 
C 207.537578 586.435668 201.360127 591.580243 196.591891 597.919409 
" clip-path="url(#p08e2867b19)" style="fill: none; stroke: #b8b8b8; stroke-width: 1.5; stroke-linejoin: miter"/>
   </g>
   <g id="patch_5">
    <path d="M 196.591891 168.160591 
C 201.360127 174.499757 207.537578 179.644332 214.634905 183.186796 
C 221.732232 186.72926 229.556949 188.573538 237.489231 188.573538 
C 245.421513 188.573538 253.24623 186.72926 260.343557 183.186796 
C 267.440883 179.644332 273.618335 174.499757 278.386571 168.160591 
" clip-path="url(#p08e2867b19)" style="fill: none; stroke: #b8b8b8; stroke-width: 1.5; stroke-linejoin: miter"/>
   </g>
   <g id="patch_6">
    <path d="M 237.489231 384.268209 
C 237.814956 384.268209 238.127384 384.138797 238.357706 383.908475 
C 238.588028 383.678153 238.71744 383.365725 238.71744 383.04 
C 238.71744 382.714275 238.588028 382.401847 238.357706 382.171525 
C 238.127384 381.941203 237.814956 381.811791 237.489231 381.811791 
C 237.163506 381.811791 236.851078 381.941203 236.620756 382.171525 
C 236.390433 382.401847 236.261022 382.714275 236.261022 383.04 
C 236.261022 383.365725 236.390433 383.678153 236.620756 383.908475 
C 236.851078 384.138797 237.163506 384.268209 237.489231 384.268209 
z
" clip-path="url(#p08e2867b19)" style="fill: #b8b8b8; stroke: #b8b8b8; stroke-linejoin: miter"/>
   </g>
   <g id="patch_7">
    <path d="M 237.489231 629.910055 
C 237.814956 629.910055 238.127384 629.780644 238.357706 629.550321 
C 238.588028 629.319999 238.71744 629.007571 238.71744 628.681846 
C 238.71744 628.356121 238.588028 628.043693 238.357706 627.813371 
C 238.127384 627.583049 237.814956 627.453637 237.489231 627.453637 
C 237.163506 627.453637 236.851078 627.583049 236.620756 627.813371 
C 236.390433 628.043693 236.261022 628.356121 236.261022 628.681846 
C 236.261022 629.007571 236.390433 629.319999 236.620756 629.550321 
C 236.851078 629.780644 237.163506 629.910055 237.489231 629.910055 
z
" clip-path="url(#p08e2867b19)" style="fill: #b8b8b8; stroke: #b8b8b8; stroke-linejoin: miter"/>
   </g>
   <g id="patch_8">
    <path d="M 237.489231 138.626363 
C 237.814956 138.626363 238.127384 138.496951 238.357706 138.266629 
C 238.588028 138.036307 238.71744 137.723879 238.71744 137.398154 
C 238.71744 137.072429 238.588028 136.760001 238.357706 136.529679 
C 238.127384 136.299356 237.814956 136.169945 237.489231 136.169945 
C 237.163506 136.169945 236.851078 136.299356 236.620756 136.529679 
C 236.390433 136.760001 236.261022 137.072429 236.261022 137.398154 
C 236.261022 137.723879 236.390433 138.036307 236.620756 138.266629 
C 236.851078 138.496951 237.163506 138.626363 237.489231 138.626363 
z
" clip-path="url(#p08e2867b19)" style="fill: #b8b8b8; stroke: #b8b8b8; stroke-linejoin: miter"/>
   </g>
   <g id="line2d_6">
    <path d="M 257.959385 690.092308 
L 257.959385 702.3744 
L 217.019077 702.3744 
L 217.019077 690.092308 
" clip-path="url(#p08e2867b19)" style="fill: none; stroke: #b8b8b8; stroke-width: 1.5; stroke-linecap: square"/>
   </g>
   <g id="line2d_7">
    <path d="M 257.959385 75.987692 
L 257.959385 63.7056 
L 217.019077 63.7056 
L 217.019077 75.987692 
" clip-path="url(#p08e2867b19)" style="fill: none; stroke: #b8b8b8; stroke-width: 1.5; stroke-linecap: square"/>
   </g>
   <g id="matplotlib.axis_1">
    <g id="xtick_1"/>
    <g id="xtick_2"/>
    <g id="xtick_3"/>
    <g id="xtick_4"/>
    <g id="xtick_5"/>
    <g id="xtick_6"/>
    <g id="xtick_7"/>
    <g id="xtick_8"/>
    <g id="xtick_9"/>
   </g>
   <g id="matplotlib.axis_2">
    <g id="ytick_1"/>
    <g id="ytick_2"/>
    <g id="ytick_3"/>
    <g id="ytick_4"/>
    <g id="ytick_5"/>
    <g id="ytick_6"/>
    <g id="ytick_7"/>
   </g>
   <g id="patch_9">
    <path d="M 370.123933 571.800206 
Q 362.865533 573.413184 356.48026 574.832134 
" style="fill: none; opacity: 0.25; stroke-dasharray: 2.96,1.28; stroke-dashoffset: 0; stroke: #000000; stroke-width: 0.8; stroke-linecap: round"/>
    <path d="M 360.818869 575.916786 
L 356.48026 574.832134 
L 359.951148 572.012038 
" style="fill: none; opacity: 0.25; stroke-dasharray: 2.96,1.28; stroke-dashoffset: 0; stroke: #000000; stroke-width: 0.8; stroke-linecap: round"/>
   </g>
   <g id="patch_10">
    <path d="M 316.305664 194.388929 
Q 300.691025 220.813703 285.531407 246.468441 
" style="fill: none; opacity: 0.25; stroke-dasharray: 2.96,1.28; stroke-dashoffset: 0; stroke: #000000; stroke-width: 0.8; stroke-linecap: round"/>
    <path d="M 289.288177 244.042193 
L 285.531407 246.468441 
L 285.844471 242.007276 
" style="fill: none; opacity: 0.25; stroke-dasharray: 2.96,1.28; stroke-dashoffset: 0; stroke: #000000; stroke-width: 0.8; stroke-linecap: round"/>
   </g>
   <g id="patch_11">
    <path d="M 209.253843 539.282722 
Q 223.926364 525.308893 237.951197 511.951909 
" style="fill: none; opacity: 0.25; stroke-dasharray: 2.96,1.28; stroke-dashoffset: 0; stroke: #000000; stroke-width: 0.8; stroke-linecap: round"/>
    <path d="M 233.675335 513.262254 
L 237.951197 511.951909 
L 236.433955 516.158806 
" style="fill: none; opacity: 0.25; stroke-dasharray: 2.96,1.28; stroke-dashoffset: 0; stroke: #000000; stroke-width: 0.8; stroke-linecap: round"/>
   </g>
   <g id="patch_12">
    <path d="M 134.739029 165.810675 
Q 130.020681 156.58845 125.709723 148.162487 
" style="fill: none; opacity: 0.25; stroke-dasharray: 2.96,1.28; stroke-dashoffset: 0; stroke: #000000; stroke-width: 0.8; stroke-linecap: round"/>
    <path d="M 125.75113 152.634431 
L 125.709723 148.162487 
L 129.312123 150.812528 
" style="fill: none; opacity: 0.25; stroke-dasharray: 2.96,1.28; stroke-dashoffset: 0; stroke: #000000; stroke-width: 0.8; stroke-linecap: round"/>
   </g>
   <g id="patch_13">
    <path d="M 342.095103 297.113768 
Q 355.446728 289.64591 368.017735 282.614668 
" style="fill: none; opacity: 0.25; stroke-dasharray: 2.96,1.28; stroke-dashoffset: 0; stroke: #000000; stroke-width: 0.8; stroke-linecap: round"/>
    <path d="M 363.550397 282.821764 
L 368.017735 282.614668 
L 365.503009 286.312796 
" style="fill: none; opacity: 0.25; stroke-dasharray: 2.96,1.28; stroke-dashoffset: 0; stroke: #000000; stroke-width: 0.8; stroke-linecap: round"/>
   </g>
   <g id="patch_14">
    <path d="M 73.641604 212.267204 
Q 62.210967 220.56002 51.504298 228.327603 
" style="fill: none; opacity: 0.25; stroke-dasharray: 2.96,1.28; stroke-dashoffset: 0; stroke: #000000; stroke-width: 0.8; stroke-linecap: round"/>
    <path d="M 55.916441 227.597536 
L 51.504298 228.327603 
L 53.567531 224.359848 
" style="fill: none; opacity: 0.25; stroke-dasharray: 2.96,1.28; stroke-dashoffset: 0; stroke: #000000; stroke-width: 0.8; stroke-linecap: round"/>
   </g>
   <g id="patch_15">
    <path d="M 256.864536 235.349133 
Q 276.382867 232.328439 295.017293 229.44454 
" style="fill: none; opacity: 0.25; stroke-dasharray: 2.96,1.28; stroke-dashoffset: 0; stroke: #000000; stroke-width: 0.8; stroke-linecap: round"/>
    <path d="M 290.758469 228.079834 
L 295.017293 229.44454 
L 291.370234 232.032775 
" style="fill: none; opacity: 0.25; stroke-dasharray: 2.96,1.28; stroke-dashoffset: 0; stroke: #000000; stroke-width: 0.8; stroke-linecap: round"/>
   </g>
   <g id="patch_16">
    <path d="M 368.449926 155.897193 
Q 386.663281 156.58884 403.982854 157.246545 
" style="fill: none; opacity: 0.25; stroke-dasharray: 2.96,1.28; stroke-dashoffset: 0; stroke: #000000; stroke-width: 0.8; stroke-linecap: round"/>
    <path d="M 400.061629 155.096196 
L 403.982854 157.246545 
L 399.90984 159.093315 
" style="fill: none; opacity: 0.25; stroke-dasharray: 2.96,1.28; stroke-dashoffset: 0; stroke: #000000; stroke-width: 0.8; stroke-linecap: round"/>
   </g>
   <g id="patch_17">
    <path d="M 69.5442 300.279058 
Q 61.188776 306.277824 53.559916 311.754954 
" style="fill: none; opacity: 0.25; stroke-dasharray: 2.96,1.28; stroke-dashoffset: 0; stroke: #000000; stroke-width: 0.8; stroke-linecap: round"/>
    <path d="M 57.975625 311.046774 
L 53.559916 311.754954 
L 55.642798 307.797479 
" style="fill: none; opacity: 0.25; stroke-dasharray: 2.96,1.28; stroke-dashoffset: 0; stroke: #000000; stroke-width: 0.8; stroke-linecap: round"/>
   </g>
   <g id="patch_18">
    <path d="M 227.376158 286.734011 
Q 235.187155 281.45631 242.25704 276.67936 
" style="fill: none; opacity: 0.25; stroke-dasharray: 2.96,1.28; stroke-dashoffset: 0; stroke: #000000; stroke-width: 0.8; stroke-linecap: round"/>
    <path d="M 237.822969 277.261612 
L 242.25704 276.67936 
L 240.062399 280.575968 
" style="fill: none; opacity: 0.25; stroke-dasharray: 2.96,1.28; stroke-dashoffset: 0; stroke: #000000; stroke-width: 0.8; stroke-linecap: round"/>
   </g>
   <g id="patch_19">
    <path d="M 54.838898 99.528369 
Q 45.835547 99.528369 37.726624 99.528369 
" style="fill: none; opacity: 0.25; stroke-dasharray: 2.96,1.28; stroke-dashoffset: 0; stroke: #000000; stroke-width: 0.8; stroke-linecap: round"/>
    <path d="M 41.726624 101.528369 
L 37.726624 99.528369 
L 41.726624 97.528369 
" style="fill: none; opacity: 0.25; stroke-dasharray: 2.96,1.28; stroke-dashoffset: 0; stroke: #000000; stroke-width: 0.8; stroke-linecap: round"/>
   </g>
   <g id="patch_20">
    <path d="M 412.280406 158.96553 
Q 400.737878 152.750322 389.982866 146.959162 
" style="fill: none; opacity: 0.25; stroke-dasharray: 2.96,1.28; stroke-dashoffset: 0; stroke: #000000; stroke-width: 0.8; stroke-linecap: round"/>
    <path d="M 392.556551 150.616504 
L 389.982866 146.959162 
L 394.45295 147.094619 
" style="fill: none; opacity: 0.25; stroke-dasharray: 2.96,1.28; stroke-dashoffset: 0; stroke: #000000; stroke-width: 0.8; stroke-linecap: round"/>
   </g>
   <g id="patch_21">
    <path d="M 190.454042 282.029524 
Q 204.481371 271.221582 217.800187 260.959543 
" style="fill: none; opacity: 0.25; stroke-dasharray: 2.96,1.28; stroke-dashoffset: 0; stroke: #000000; stroke-width: 0.8; stroke-linecap: round"/>
    <path d="M 213.410947 261.816614 
L 217.800187 260.959543 
L 215.852299 264.985178 
" style="fill: none; opacity: 0.25; stroke-dasharray: 2.96,1.28; stroke-dashoffset: 0; stroke: #000000; stroke-width: 0.8; stroke-linecap: round"/>
   </g>
   <g id="patch_22">
    <path d="M 232.88557 318.815907 
Q 278.427955 280.946424 323.28261 243.648803 
" style="fill: none; opacity: 0.25; stroke-dasharray: 2.96,1.28; stroke-dashoffset: 0; stroke: #000000; stroke-width: 0.8; stroke-linecap: round"/>
    <path d="M 318.928263 244.66844 
L 323.28261 243.648803 
L 321.485711 247.744063 
" style="fill: none; opacity: 0.25; stroke-dasharray: 2.96,1.28; stroke-dashoffset: 0; stroke: #000000; stroke-width: 0.8; stroke-linecap: round"/>
   </g>
   <g id="patch_23">
    <path d="M 167.249641 455.962174 
Q 175.056076 471.575043 182.46251 486.387912 
" style="fill: none; opacity: 0.25; stroke-dasharray: 2.96,1.28; stroke-dashoffset: 0; stroke: #000000; stroke-width: 0.8; stroke-linecap: round"/>
    <path d="M 182.46251 481.915776 
L 182.46251 486.387912 
L 178.884801 483.704631 
" style="fill: none; opacity: 0.25; stroke-dasharray: 2.96,1.28; stroke-dashoffset: 0; stroke: #000000; stroke-width: 0.8; stroke-linecap: round"/>
   </g>
   <g id="patch_24">
    <path d="M 201.123114 541.280855 
Q 214.716059 486.414785 228.093914 432.416896 
" style="fill: none; opacity: 0.25; stroke-dasharray: 2.96,1.28; stroke-dashoffset: 0; stroke: #000000; stroke-width: 0.8; stroke-linecap: round"/>
    <path d="M 225.190695 435.818559 
L 228.093914 432.416896 
L 229.073314 436.78047 
" style="fill: none; opacity: 0.25; stroke-dasharray: 2.96,1.28; stroke-dashoffset: 0; stroke: #000000; stroke-width: 0.8; stroke-linecap: round"/>
   </g>
   <g id="patch_25">
    <path d="M 274.18939 508.310745 
Q 284.824957 504.837907 294.610277 501.6427 
" style="fill: none; opacity: 0.25; stroke-dasharray: 2.96,1.28; stroke-dashoffset: 0; stroke: #000000; stroke-width: 0.8; stroke-linecap: round"/>
    <path d="M 290.187052 500.983096 
L 294.610277 501.6427 
L 291.428659 504.785518 
" style="fill: none; opacity: 0.25; stroke-dasharray: 2.96,1.28; stroke-dashoffset: 0; stroke: #000000; stroke-width: 0.8; stroke-linecap: round"/>
   </g>
   <g id="patch_26">
    <path d="M 344.695852 424.121677 
Q 318.344267 411.185445 292.795581 398.643362 
" style="fill: none; opacity: 0.25; stroke-dasharray: 2.96,1.28; stroke-dashoffset: 0; stroke: #000000; stroke-width: 0.8; stroke-linecap: round"/>
    <path d="M 295.504905 402.20139 
L 292.795581 398.643362 
L 297.267598 398.61072 
" style="fill: none; opacity: 0.25; stroke-dasharray: 2.96,1.28; stroke-dashoffset: 0; stroke: #000000; stroke-width: 0.8; stroke-linecap: round"/>
   </g>
   <g id="patch_27">
    <path d="M 366.8665 292.849975 
Q 355.704594 276.339656 345.043634 260.570319 
" style="fill: none; opacity: 0.25; stroke-dasharray: 2.96,1.28; stroke-dashoffset: 0; stroke: #000000; stroke-width: 0.8; stroke-linecap: round"/>
    <path d="M 345.627044 265.004237 
L 345.043634 260.570319 
L 348.940815 262.763942 
" style="fill: none; opacity: 0.25; stroke-dasharray: 2.96,1.28; stroke-dashoffset: 0; stroke: #000000; stroke-width: 0.8; stroke-linecap: round"/>
   </g>
   <g id="patch_28">
    <path d="M 340.488875 353.921928 
Q 345.469286 281.456948 350.388369 209.884291 
" style="fill: none; opacity: 0.25; stroke-dasharray: 2.96,1.28; stroke-dashoffset: 0; stroke: #000000; stroke-width: 0.8; stroke-linecap: round"/>
    <path d="M 348.118809 213.737744 
L 350.388369 209.884291 
L 352.109395 214.012011 
" style="fill: none; opacity: 0.25; stroke-dasharray: 2.96,1.28; stroke-dashoffset: 0; stroke: #000000; stroke-width: 0.8; stroke-linecap: round"/>
   </g>
   <g id="patch_29">
    <path d="M 184.939757 392.678489 
Q 177.103063 400.950555 169.881507 408.573308 
" style="fill: none; opacity: 0.25; stroke-dasharray: 2.96,1.28; stroke-dashoffset: 0; stroke: #000000; stroke-width: 0.8; stroke-linecap: round"/>
    <path d="M 174.084391 407.044987 
L 169.881507 408.573308 
L 171.18058 404.294008 
" style="fill: none; opacity: 0.25; stroke-dasharray: 2.96,1.28; stroke-dashoffset: 0; stroke: #000000; stroke-width: 0.8; stroke-linecap: round"/>
   </g>
   <g id="patch_30">
    <path d="M 142.95111 247.991911 
Q 147.420455 182.689813 151.828727 118.280055 
" style="fill: none; opacity: 0.25; stroke-dasharray: 2.96,1.28; stroke-dashoffset: 0; stroke: #000000; stroke-width: 0.8; stroke-linecap: round"/>
    <path d="M 149.56027 122.134156 
L 151.828727 118.280055 
L 153.550934 122.407282 
" style="fill: none; opacity: 0.25; stroke-dasharray: 2.96,1.28; stroke-dashoffset: 0; stroke: #000000; stroke-width: 0.8; stroke-linecap: round"/>
   </g>
   <g id="patch_31">
    <path d="M 107.715238 350.982568 
Q 138.465219 271.732618 168.891652 193.316525 
" style="fill: none; opacity: 0.25; stroke-dasharray: 2.96,1.28; stroke-dashoffset: 0; stroke: #000000; stroke-width: 0.8; stroke-linecap: round"/>
    <path d="M 165.580146 196.322173 
L 168.891652 193.316525 
L 169.309267 197.769119 
" style="fill: none; opacity: 0.25; stroke-dasharray: 2.96,1.28; stroke-dashoffset: 0; stroke: #000000; stroke-width: 0.8; stroke-linecap: round"/>
   </g>
   <g id="patch_32">
    <path d="M 295.112202 421.989734 
Q 292.758729 399.161051 290.49698 377.22208 
" style="fill: none; opacity: 0.25; stroke-dasharray: 2.96,1.28; stroke-dashoffset: 0; stroke: #000000; stroke-width: 0.8; stroke-linecap: round"/>
    <path d="M 288.917721 381.40609 
L 290.49698 377.22208 
L 292.896632 380.995893 
" style="fill: none; opacity: 0.25; stroke-dasharray: 2.96,1.28; stroke-dashoffset: 0; stroke: #000000; stroke-width: 0.8; stroke-linecap: round"/>
   </g>
   <g id="patch_33">
    <path d="M 373.167469 142.224332 
Q 356.729811 144.050739 341.181109 145.778372 
" style="fill: none; opacity: 0.25; stroke-dasharray: 2.96,1.28; stroke-dashoffset: 0; stroke: #000000; stroke-width: 0.8; stroke-linecap: round"/>
    <path d="M 345.377507 147.324414 
L 341.181109 145.778372 
L 344.935781 143.348879 
" style="fill: none; opacity: 0.25; stroke-dasharray: 2.96,1.28; stroke-dashoffset: 0; stroke: #000000; stroke-width: 0.8; stroke-linecap: round"/>
   </g>
   <g id="patch_34">
    <path d="M 280.605367 260.476703 
Q 275.870643 251.007255 271.535919 242.337807 
" style="fill: none; opacity: 0.25; stroke-dasharray: 2.96,1.28; stroke-dashoffset: 0; stroke: #000000; stroke-width: 0.8; stroke-linecap: round"/>
    <path d="M 271.535919 246.809943 
L 271.535919 242.337807 
L 275.113628 245.021089 
" style="fill: none; opacity: 0.25; stroke-dasharray: 2.96,1.28; stroke-dashoffset: 0; stroke: #000000; stroke-width: 0.8; stroke-linecap: round"/>
   </g>
   <g id="patch_35">
    <path d="M 231.650539 228.674375 
Q 226.230643 214.672977 221.13363 201.505694 
" style="fill: none; opacity: 0.25; stroke-dasharray: 2.96,1.28; stroke-dashoffset: 0; stroke: #000000; stroke-width: 0.8; stroke-linecap: round"/>
    <path d="M 220.712471 205.957954 
L 221.13363 201.505694 
L 224.442743 204.513978 
" style="fill: none; opacity: 0.25; stroke-dasharray: 2.96,1.28; stroke-dashoffset: 0; stroke: #000000; stroke-width: 0.8; stroke-linecap: round"/>
   </g>
   <g id="patch_36">
    <path d="M 352.070804 125.74351 
Q 367.730047 126.651292 382.496362 127.50731 
" style="fill: none; opacity: 0.25; stroke-dasharray: 2.96,1.28; stroke-dashoffset: 0; stroke: #000000; stroke-width: 0.8; stroke-linecap: round"/>
    <path d="M 378.618814 125.279167 
L 382.496362 127.50731 
L 378.387318 129.272463 
" style="fill: none; opacity: 0.25; stroke-dasharray: 2.96,1.28; stroke-dashoffset: 0; stroke: #000000; stroke-width: 0.8; stroke-linecap: round"/>
   </g>
   <g id="patch_37">
    <path d="M 158.084674 394.069851 
Q 167.379118 376.64277 176.252654 360.00489 
" style="fill: none; opacity: 0.25; stroke-dasharray: 2.96,1.28; stroke-dashoffset: 0; stroke: #000000; stroke-width: 0.8; stroke-linecap: round"/>
    <path d="M 172.605595 362.593125 
L 176.252654 360.00489 
L 176.135007 364.475478 
" style="fill: none; opacity: 0.25; stroke-dasharray: 2.96,1.28; stroke-dashoffset: 0; stroke: #000000; stroke-width: 0.8; stroke-linecap: round"/>
   </g>
   <g id="patch_38">
    <path d="M 72.768899 148.751693 
Q 67.586645 126.13822 62.604184 104.396575 
" style="fill: none; opacity: 0.25; stroke-dasharray: 2.96,1.28; stroke-dashoffset: 0; stroke: #000000; stroke-width: 0.8; stroke-linecap: round"/>
    <path d="M 61.548224 108.742256 
L 62.604184 104.396575 
L 65.447153 107.848751 
" style="fill: none; opacity: 0.25; stroke-dasharray: 2.96,1.28; stroke-dashoffset: 0; stroke: #000000; stroke-width: 0.8; stroke-linecap: round"/>
   </g>
   <g id="patch_39">
    <path d="M 274.12867 244.576226 
Q 277.661266 236.679835 280.828608 229.599893 
" style="fill: none; opacity: 0.25; stroke-dasharray: 2.96,1.28; stroke-dashoffset: 0; stroke: #000000; stroke-width: 0.8; stroke-linecap: round"/>
    <path d="M 277.369508 232.434434 
L 280.828608 229.599893 
L 281.020781 234.067898 
" style="fill: none; opacity: 0.25; stroke-dasharray: 2.96,1.28; stroke-dashoffset: 0; stroke: #000000; stroke-width: 0.8; stroke-linecap: round"/>
   </g>
   <g id="patch_40">
    <path d="M 414.970987 412.091401 
Q 405.345138 397.881814 396.220927 384.412741 
" style="fill: none; opacity: 0.25; stroke-dasharray: 2.96,1.28; stroke-dashoffset: 0; stroke: #000000; stroke-width: 0.8; stroke-linecap: round"/>
    <path d="M 396.808482 388.846112 
L 396.220927 384.412741 
L 400.120156 386.602719 
" style="fill: none; opacity: 0.25; stroke-dasharray: 2.96,1.28; stroke-dashoffset: 0; stroke: #000000; stroke-width: 0.8; stroke-linecap: round"/>
   </g>
   <g id="patch_41">
    <path d="M 353.178647 420.010467 
Q 356.983889 406.5802 360.545308 394.010486 
" style="fill: none; opacity: 0.25; stroke-dasharray: 2.96,1.28; stroke-dashoffset: 0; stroke: #000000; stroke-width: 0.8; stroke-linecap: round"/>
    <path d="M 357.530644 397.313788 
L 360.545308 394.010486 
L 361.379151 398.404198 
" style="fill: none; opacity: 0.25; stroke-dasharray: 2.96,1.28; stroke-dashoffset: 0; stroke: #000000; stroke-width: 0.8; stroke-linecap: round"/>
   </g>
   <g id="patch_42">
    <path d="M 311.693913 362.381937 
Q 302.993796 347.729107 294.750318 333.845356 
" style="fill: none; opacity: 0.25; stroke-dasharray: 2.96,1.28; stroke-dashoffset: 0; stroke: #000000; stroke-width: 0.8; stroke-linecap: round"/>
    <path d="M 295.072764 338.305852 
L 294.750318 333.845356 
L 298.512183 336.263697 
" style="fill: none; opacity: 0.25; stroke-dasharray: 2.96,1.28; stroke-dashoffset: 0; stroke: #000000; stroke-width: 0.8; stroke-linecap: round"/>
   </g>
   <g id="patch_43">
    <path d="M 74.065838 303.273961 
Q 89.082084 287.08457 103.490082 271.550948 
" style="fill: none; opacity: 0.25; stroke-dasharray: 2.96,1.28; stroke-dashoffset: 0; stroke: #000000; stroke-width: 0.8; stroke-linecap: round"/>
    <path d="M 99.303564 273.123549 
L 103.490082 271.550948 
L 102.236252 275.843722 
" style="fill: none; opacity: 0.25; stroke-dasharray: 2.96,1.28; stroke-dashoffset: 0; stroke: #000000; stroke-width: 0.8; stroke-linecap: round"/>
   </g>
   <g id="patch_44">
    <path d="M 69.799327 129.481462 
Q 65.795823 137.909892 62.176078 145.530407 
" style="fill: none; opacity: 0.25; stroke-dasharray: 2.96,1.28; stroke-dashoffset: 0; stroke: #000000; stroke-width: 0.8; stroke-linecap: round"/>
    <path d="M 65.698861 142.77541 
L 62.176078 145.530407 
L 62.085751 141.059183 
" style="fill: none; opacity: 0.25; stroke-dasharray: 2.96,1.28; stroke-dashoffset: 0; stroke: #000000; stroke-width: 0.8; stroke-linecap: round"/>
   </g>
   <g id="patch_45">
    <path d="M 213.713105 345.382957 
Q 242.606637 278.130769 271.147103 211.700374 
" style="fill: none; opacity: 0.25; stroke-dasharray: 2.96,1.28; stroke-dashoffset: 0; stroke: #000000; stroke-width: 0.8; stroke-linecap: round"/>
    <path d="M 267.730556 214.586063 
L 271.147103 211.700374 
L 271.405726 216.165025 
" style="fill: none; opacity: 0.25; stroke-dasharray: 2.96,1.28; stroke-dashoffset: 0; stroke: #000000; stroke-width: 0.8; stroke-linecap: round"/>
   </g>
   <g id="patch_46">
    <path d="M 206.514708 492.623353 
Q 184.779096 332.891878 163.164082 174.046664 
" style="fill: none; opacity: 0.25; stroke-dasharray: 2.96,1.28; stroke-dashoffset: 0; stroke: #000000; stroke-width: 0.8; stroke-linecap: round"/>
    <path d="M 161.721679 178.279803 
L 163.164082 174.046664 
L 165.685152 177.74047 
" style="fill: none; opacity: 0.25; stroke-dasharray: 2.96,1.28; stroke-dashoffset: 0; stroke: #000000; stroke-width: 0.8; stroke-linecap: round"/>
   </g>
   <g id="patch_47">
    <path d="M 192.378054 317.584734 
Q 191.431385 292.971346 190.519092 269.251724 
" style="fill: none; opacity: 0.25; stroke-dasharray: 2.96,1.28; stroke-dashoffset: 0; stroke: #000000; stroke-width: 0.8; stroke-linecap: round"/>
    <path d="M 188.674302 273.325635 
L 190.519092 269.251724 
L 192.671347 273.171903 
" style="fill: none; opacity: 0.25; stroke-dasharray: 2.96,1.28; stroke-dashoffset: 0; stroke: #000000; stroke-width: 0.8; stroke-linecap: round"/>
   </g>
   <g id="patch_48">
    <path d="M 363.43697 233.780208 
Q 279.710293 241.028189 196.87471 248.199031 
" style="fill: none; opacity: 0.25; stroke-dasharray: 2.96,1.28; stroke-dashoffset: 0; stroke: #000000; stroke-width: 0.8; stroke-linecap: round"/>
    <path d="M 201.032295 249.8466 
L 196.87471 248.199031 
L 200.687317 245.861504 
" style="fill: none; opacity: 0.25; stroke-dasharray: 2.96,1.28; stroke-dashoffset: 0; stroke: #000000; stroke-width: 0.8; stroke-linecap: round"/>
   </g>
   <g id="patch_49">
    <path d="M 182.791665 349.071964 
Q 168.917354 347.729288 155.93331 346.472768 
" style="fill: none; opacity: 0.25; stroke-dasharray: 2.96,1.28; stroke-dashoffset: 0; stroke: #000000; stroke-width: 0.8; stroke-linecap: round"/>
    <path d="M 159.722062 348.848765 
L 155.93331 346.472768 
L 160.107358 344.867365 
" style="fill: none; opacity: 0.25; stroke-dasharray: 2.96,1.28; stroke-dashoffset: 0; stroke: #000000; stroke-width: 0.8; stroke-linecap: round"/>
   </g>
   <g id="patch_50">
    <path d="M 323.378231 462.922202 
Q 320.393311 393.274077 317.446689 324.51956 
" style="fill: none; opacity: 0.25; stroke-dasharray: 2.96,1.28; stroke-dashoffset: 0; stroke: #000000; stroke-width: 0.8; stroke-linecap: round"/>
    <path d="M 315.619794 328.601527 
L 317.446689 324.51956 
L 319.616126 328.430256 
" style="fill: none; opacity: 0.25; stroke-dasharray: 2.96,1.28; stroke-dashoffset: 0; stroke: #000000; stroke-width: 0.8; stroke-linecap: round"/>
   </g>
   <g id="patch_51">
    <path d="M 318.812302 450.591508 
Q 327.815653 450.591508 335.924576 450.591508 
" style="fill: none; opacity: 0.25; stroke-dasharray: 2.96,1.28; stroke-dashoffset: 0; stroke: #000000; stroke-width: 0.8; stroke-linecap: round"/>
    <path d="M 331.924576 448.591508 
L 335.924576 450.591508 
L 331.924576 452.591508 
" style="fill: none; opacity: 0.25; stroke-dasharray: 2.96,1.28; stroke-dashoffset: 0; stroke: #000000; stroke-width: 0.8; stroke-linecap: round"/>
   </g>
   <g id="patch_52">
    <path d="M 255.089484 407.055636 
Q 277.661423 419.886001 299.455776 432.274371 
" style="fill: none; opacity: 0.25; stroke-dasharray: 2.96,1.28; stroke-dashoffset: 0; stroke: #000000; stroke-width: 0.8; stroke-linecap: round"/>
    <path d="M 296.966641 428.55897 
L 299.455776 432.274371 
L 294.989974 432.036439 
" style="fill: none; opacity: 0.25; stroke-dasharray: 2.96,1.28; stroke-dashoffset: 0; stroke: #000000; stroke-width: 0.8; stroke-linecap: round"/>
   </g>
   <g id="patch_53">
    <path d="M 399.451827 181.860767 
Q 400.227093 188.062896 400.891419 193.377504 
" style="fill: none; opacity: 0.25; stroke-dasharray: 2.96,1.28; stroke-dashoffset: 0; stroke: #000000; stroke-width: 0.8; stroke-linecap: round"/>
    <path d="M 402.379836 189.160323 
L 400.891419 193.377504 
L 398.410724 189.656462 
" style="fill: none; opacity: 0.25; stroke-dasharray: 2.96,1.28; stroke-dashoffset: 0; stroke: #000000; stroke-width: 0.8; stroke-linecap: round"/>
   </g>
   <g id="patch_54">
    <path d="M 186.510705 249.032255 
Q 178.38176 198.041604 170.393628 147.934227 
" style="fill: none; opacity: 0.25; stroke-dasharray: 2.96,1.28; stroke-dashoffset: 0; stroke: #000000; stroke-width: 0.8; stroke-linecap: round"/>
    <path d="M 169.048297 152.199211 
L 170.393628 147.934227 
L 172.998417 151.569482 
" style="fill: none; opacity: 0.25; stroke-dasharray: 2.96,1.28; stroke-dashoffset: 0; stroke: #000000; stroke-width: 0.8; stroke-linecap: round"/>
   </g>
   <g id="patch_55">
    <path d="M 259.137943 367.551887 
Q 251.305623 364.87241 244.319579 362.482447 
" style="fill: none; opacity: 0.25; stroke-dasharray: 2.96,1.28; stroke-dashoffset: 0; stroke: #000000; stroke-width: 0.8; stroke-linecap: round"/>
    <path d="M 247.456859 365.669526 
L 244.319579 362.482447 
L 248.75161 361.88487 
" style="fill: none; opacity: 0.25; stroke-dasharray: 2.96,1.28; stroke-dashoffset: 0; stroke: #000000; stroke-width: 0.8; stroke-linecap: round"/>
   </g>
   <g id="patch_56">
    <path d="M 292.252202 264.426428 
Q 287.129776 244.868073 282.233961 226.174961 
" style="fill: none; opacity: 0.25; stroke-dasharray: 2.96,1.28; stroke-dashoffset: 0; stroke: #000000; stroke-width: 0.8; stroke-linecap: round"/>
    <path d="M 281.312654 230.551169 
L 282.233961 226.174961 
L 285.182143 229.537732 
" style="fill: none; opacity: 0.25; stroke-dasharray: 2.96,1.28; stroke-dashoffset: 0; stroke: #000000; stroke-width: 0.8; stroke-linecap: round"/>
   </g>
   <g id="patch_57">
    <path d="M 310.856457 246.454791 
Q 316.555262 185.502349 322.170806 125.44045 
" style="fill: none; opacity: 0.25; stroke-dasharray: 2.96,1.28; stroke-dashoffset: 0; stroke: #000000; stroke-width: 0.8; stroke-linecap: round"/>
    <path d="M 319.807131 129.236901 
L 322.170806 125.44045 
L 323.789761 129.609261 
" style="fill: none; opacity: 0.25; stroke-dasharray: 2.96,1.28; stroke-dashoffset: 0; stroke: #000000; stroke-width: 0.8; stroke-linecap: round"/>
   </g>
   <g id="patch_58">
    <path d="M 368.054866 263.971272 
Q 377.452571 270.964913 386.132737 277.424572 
" style="fill: none; opacity: 0.25; stroke-dasharray: 2.96,1.28; stroke-dashoffset: 0; stroke: #000000; stroke-width: 0.8; stroke-linecap: round"/>
    <path d="M 384.117826 273.432062 
L 386.132737 277.424572 
L 381.729783 276.640995 
" style="fill: none; opacity: 0.25; stroke-dasharray: 2.96,1.28; stroke-dashoffset: 0; stroke: #000000; stroke-width: 0.8; stroke-linecap: round"/>
   </g>
   <g id="patch_59">
    <path d="M 123.394845 194.516695 
Q 95.989062 146.8652 69.029202 99.989046 
" style="fill: none; opacity: 0.25; stroke-dasharray: 2.96,1.28; stroke-dashoffset: 0; stroke: #000000; stroke-width: 0.8; stroke-linecap: round"/>
    <path d="M 69.289708 104.453588 
L 69.029202 99.989046 
L 72.757139 102.459366 
" style="fill: none; opacity: 0.25; stroke-dasharray: 2.96,1.28; stroke-dashoffset: 0; stroke: #000000; stroke-width: 0.8; stroke-linecap: round"/>
   </g>
   <g id="patch_60">
    <path d="M 326.491483 111.937463 
Q 323.719708 102.342856 321.196171 93.607537 
" style="fill: none; opacity: 0.25; stroke-dasharray: 2.96,1.28; stroke-dashoffset: 0; stroke: #000000; stroke-width: 0.8; stroke-linecap: round"/>
    <path d="M 320.384902 98.005473 
L 321.196171 93.607537 
L 324.227758 96.895315 
" style="fill: none; opacity: 0.25; stroke-dasharray: 2.96,1.28; stroke-dashoffset: 0; stroke: #000000; stroke-width: 0.8; stroke-linecap: round"/>
   </g>
   <g id="patch_61">
    <path d="M 352.566566 439.464672 
Q 349.81921 430.377264 347.330692 422.146012 
" style="fill: none; opacity: 0.25; stroke-dasharray: 2.96,1.28; stroke-dashoffset: 0; stroke: #000000; stroke-width: 0.8; stroke-linecap: round"/>
    <path d="M 346.573827 426.553637 
L 347.330692 422.146012 
L 350.402673 425.396079 
" style="fill: none; opacity: 0.25; stroke-dasharray: 2.96,1.28; stroke-dashoffset: 0; stroke: #000000; stroke-width: 0.8; stroke-linecap: round"/>
   </g>
   <g id="patch_62">
    <path d="M 135.718183 139.266255 
Q 142.305754 134.325577 148.177783 129.921555 
" style="fill: none; opacity: 0.25; stroke-dasharray: 2.96,1.28; stroke-dashoffset: 0; stroke: #000000; stroke-width: 0.8; stroke-linecap: round"/>
    <path d="M 143.777783 130.721555 
L 148.177783 129.921555 
L 146.177783 133.921555 
" style="fill: none; opacity: 0.25; stroke-dasharray: 2.96,1.28; stroke-dashoffset: 0; stroke: #000000; stroke-width: 0.8; stroke-linecap: round"/>
   </g>
   <g id="patch_63">
    <path d="M 235.670106 362.656679 
Q 242.093605 359.244195 247.727222 356.251336 
" style="fill: none; opacity: 0.25; stroke-dasharray: 2.96,1.28; stroke-dashoffset: 0; stroke: #000000; stroke-width: 0.8; stroke-linecap: round"/>
    <path d="M 243.256449 356.361726 
L 247.727222 356.251336 
L 245.13307 359.894189 
" style="fill: none; opacity: 0.25; stroke-dasharray: 2.96,1.28; stroke-dashoffset: 0; stroke: #000000; stroke-width: 0.8; stroke-linecap: round"/>
   </g>
   <g id="patch_64">
    <path d="M 286.407232 492.099105 
Q 282.779298 457.754656 279.245322 424.299686 
" style="fill: none; opacity: 0.25; stroke-dasharray: 2.96,1.28; stroke-dashoffset: 0; stroke: #000000; stroke-width: 0.8; stroke-linecap: round"/>
    <path d="M 277.676585 428.487653 
L 279.245322 424.299686 
L 281.654453 428.067456 
" style="fill: none; opacity: 0.25; stroke-dasharray: 2.96,1.28; stroke-dashoffset: 0; stroke: #000000; stroke-width: 0.8; stroke-linecap: round"/>
   </g>
   <g id="patch_65">
    <path d="M 208.831015 366.198257 
Q 208.831015 334.67719 208.831015 304.05055 
" style="fill: none; opacity: 0.25; stroke-dasharray: 2.96,1.28; stroke-dashoffset: 0; stroke: #000000; stroke-width: 0.8; stroke-linecap: round"/>
    <path d="M 206.831015 308.05055 
L 208.831015 304.05055 
L 210.831015 308.05055 
" style="fill: none; opacity: 0.25; stroke-dasharray: 2.96,1.28; stroke-dashoffset: 0; stroke: #000000; stroke-width: 0.8; stroke-linecap: round"/>
   </g>
   <g id="patch_66">
    <path d="M 86.844316 306.050032 
Q 91.639751 316.5128 96.062519 326.162475 
" style="fill: none; opacity: 0.25; stroke-dasharray: 2.96,1.28; stroke-dashoffset: 0; stroke: #000000; stroke-width: 0.8; stroke-linecap: round"/>
    <path d="M 96.21403 321.692906 
L 96.062519 326.162475 
L 92.57777 323.359525 
" style="fill: none; opacity: 0.25; stroke-dasharray: 2.96,1.28; stroke-dashoffset: 0; stroke: #000000; stroke-width: 0.8; stroke-linecap: round"/>
   </g>
   <g id="patch_67">
    <path d="M 230.716988 365.282042 
Q 228.278853 357.967635 226.12356 351.501757 
" style="fill: none; opacity: 0.25; stroke-dasharray: 2.96,1.28; stroke-dashoffset: 0; stroke: #000000; stroke-width: 0.8; stroke-linecap: round"/>
    <path d="M 225.491105 355.928946 
L 226.12356 351.501757 
L 229.285838 354.664035 
" style="fill: none; opacity: 0.25; stroke-dasharray: 2.96,1.28; stroke-dashoffset: 0; stroke: #000000; stroke-width: 0.8; stroke-linecap: round"/>
   </g>
   <g id="patch_68">
    <path d="M 138.381402 407.678805 
Q 134.626383 385.852758 131.023016 364.908188 
" style="fill: none; opacity: 0.25; stroke-dasharray: 2.96,1.28; stroke-dashoffset: 0; stroke: #000000; stroke-width: 0.8; stroke-linecap: round"/>
    <path d="M 129.730182 369.189377 
L 131.023016 364.908188 
L 133.672267 368.511169 
" style="fill: none; opacity: 0.25; stroke-dasharray: 2.96,1.28; stroke-dashoffset: 0; stroke: #000000; stroke-width: 0.8; stroke-linecap: round"/>
   </g>
   <g id="patch_69">
    <path d="M 273.228665 344.705439 
Q 272.800182 334.42184 272.408934 325.031893 
" style="fill: none; opacity: 0.25; stroke-dasharray: 2.96,1.28; stroke-dashoffset: 0; stroke: #000000; stroke-width: 0.8; stroke-linecap: round"/>
    <path d="M 270.57719 329.111686 
L 272.408934 325.031893 
L 274.573722 328.945164 
" style="fill: none; opacity: 0.25; stroke-dasharray: 2.96,1.28; stroke-dashoffset: 0; stroke: #000000; stroke-width: 0.8; stroke-linecap: round"/>
   </g>
   <g id="patch_70">
    <path d="M 404.026002 301.884661 
Q 399.202612 290.922411 394.739442 280.778844 
" style="fill: none; opacity: 0.25; stroke-dasharray: 2.96,1.28; stroke-dashoffset: 0; stroke: #000000; stroke-width: 0.8; stroke-linecap: round"/>
    <path d="M 394.519766 285.245581 
L 394.739442 280.778844 
L 398.181027 283.634627 
" style="fill: none; opacity: 0.25; stroke-dasharray: 2.96,1.28; stroke-dashoffset: 0; stroke: #000000; stroke-width: 0.8; stroke-linecap: round"/>
   </g>
   <g id="patch_71">
    <path d="M 199.430974 356.37595 
Q 185.803413 338.519146 172.718477 321.373368 
" style="fill: none; opacity: 0.25; stroke-dasharray: 2.96,1.28; stroke-dashoffset: 0; stroke: #000000; stroke-width: 0.8; stroke-linecap: round"/>
    <path d="M 173.555268 325.766519 
L 172.718477 321.373368 
L 176.735073 323.339826 
" style="fill: none; opacity: 0.25; stroke-dasharray: 2.96,1.28; stroke-dashoffset: 0; stroke: #000000; stroke-width: 0.8; stroke-linecap: round"/>
   </g>
   <g id="patch_72">
    <path d="M 308.503542 397.420911 
Q 306.064224 356.684312 303.67837 316.840541 
" style="fill: none; opacity: 0.25; stroke-dasharray: 2.96,1.28; stroke-dashoffset: 0; stroke: #000000; stroke-width: 0.8; stroke-linecap: round"/>
    <path d="M 301.921038 320.952935 
L 303.67837 316.840541 
L 305.913886 320.713843 
" style="fill: none; opacity: 0.25; stroke-dasharray: 2.96,1.28; stroke-dashoffset: 0; stroke: #000000; stroke-width: 0.8; stroke-linecap: round"/>
   </g>
   <g id="patch_73">
    <path d="M 181.000246 347.169191 
Q 167.634926 329.817723 154.81541 313.174843 
" style="fill: none; opacity: 0.25; stroke-dasharray: 2.96,1.28; stroke-dashoffset: 0; stroke: #000000; stroke-width: 0.8; stroke-linecap: round"/>
    <path d="M 155.67187 317.564202 
L 154.81541 313.174843 
L 158.840774 315.12329 
" style="fill: none; opacity: 0.25; stroke-dasharray: 2.96,1.28; stroke-dashoffset: 0; stroke: #000000; stroke-width: 0.8; stroke-linecap: round"/>
   </g>
   <g id="patch_74">
    <path d="M 356.426397 410.196563 
Q 350.074409 402.997643 344.314193 396.469399 
" style="fill: none; opacity: 0.25; stroke-dasharray: 2.96,1.28; stroke-dashoffset: 0; stroke: #000000; stroke-width: 0.8; stroke-linecap: round"/>
    <path d="M 345.461004 400.791993 
L 344.314193 396.469399 
L 348.460356 398.145507 
" style="fill: none; opacity: 0.25; stroke-dasharray: 2.96,1.28; stroke-dashoffset: 0; stroke: #000000; stroke-width: 0.8; stroke-linecap: round"/>
   </g>
   <g id="patch_75">
    <path d="M 307.958835 323.329971 
Q 305.552678 316.512525 303.444204 310.538516 
" style="fill: none; opacity: 0.25; stroke-dasharray: 2.96,1.28; stroke-dashoffset: 0; stroke: #000000; stroke-width: 0.8; stroke-linecap: round"/>
    <path d="M 302.889504 314.976118 
L 303.444204 310.538516 
L 306.661465 313.644837 
" style="fill: none; opacity: 0.25; stroke-dasharray: 2.96,1.28; stroke-dashoffset: 0; stroke: #000000; stroke-width: 0.8; stroke-linecap: round"/>
   </g>
   <g id="patch_76">
    <path d="M 259.240167 273.214849 
Q 228.022018 198.041546 197.146904 123.694272 
" style="fill: none; opacity: 0.25; stroke-dasharray: 2.96,1.28; stroke-dashoffset: 0; stroke: #000000; stroke-width: 0.8; stroke-linecap: round"/>
    <path d="M 196.833947 128.155445 
L 197.146904 123.694272 
L 200.528068 126.621341 
" style="fill: none; opacity: 0.25; stroke-dasharray: 2.96,1.28; stroke-dashoffset: 0; stroke: #000000; stroke-width: 0.8; stroke-linecap: round"/>
   </g>
   <g id="patch_77">
    <path d="M 150.235544 323.231034 
Q 163.284548 222.352192 176.218811 122.360387 
" style="fill: none; opacity: 0.25; stroke-dasharray: 2.96,1.28; stroke-dashoffset: 0; stroke: #000000; stroke-width: 0.8; stroke-linecap: round"/>
    <path d="M 173.722199 126.070768 
L 176.218811 122.360387 
L 177.689148 126.583906 
" style="fill: none; opacity: 0.25; stroke-dasharray: 2.96,1.28; stroke-dashoffset: 0; stroke: #000000; stroke-width: 0.8; stroke-linecap: round"/>
   </g>
   <g id="patch_78">
    <path d="M 373.712239 90.956867 
Q 402.530003 111.298818 430.617049 131.124968 
" style="fill: none; opacity: 0.25; stroke-dasharray: 2.96,1.28; stroke-dashoffset: 0; stroke: #000000; stroke-width: 0.8; stroke-linecap: round"/>
    <path d="M 428.502544 127.1843 
L 430.617049 131.124968 
L 426.195811 130.452171 
" style="fill: none; opacity: 0.25; stroke-dasharray: 2.96,1.28; stroke-dashoffset: 0; stroke: #000000; stroke-width: 0.8; stroke-linecap: round"/>
   </g>
   <g id="patch_79">
    <path d="M 159.085162 221.374496 
Q 156.632101 175.011654 154.226299 129.54199 
" style="fill: none; opacity: 0.25; stroke-dasharray: 2.96,1.28; stroke-dashoffset: 0; stroke: #000000; stroke-width: 0.8; stroke-linecap: round"/>
    <path d="M 152.440437 133.642075 
L 154.226299 129.54199 
L 156.43485 133.43073 
" style="fill: none; opacity: 0.25; stroke-dasharray: 2.96,1.28; stroke-dashoffset: 0; stroke: #000000; stroke-width: 0.8; stroke-linecap: round"/>
   </g>
   <g id="patch_80">
    <path d="M 195.43385 467.558597 
Q 249.004262 455.70892 300.391381 444.342184 
" style="fill: none; opacity: 0.6; stroke: #1a73e8; stroke-width: 2; stroke-linecap: round"/>
    <path d="M 296.053833 443.253297 
L 300.391381 444.342184 
L 296.917743 447.158891 
" style="fill: none; opacity: 0.6; stroke: #1a73e8; stroke-width: 2; stroke-linecap: round"/>
   </g>
   <g id="patch_81">
    <path d="M 204.575016 217.709321 
Q 153.304851 185.758349 103.932412 154.990017 
" style="fill: none; opacity: 0.6; stroke: #1a73e8; stroke-width: 2; stroke-linecap: round"/>
    <path d="M 106.26938 158.802966 
L 103.932412 154.990017 
L 108.384952 155.408211 
" style="fill: none; opacity: 0.6; stroke: #1a73e8; stroke-width: 2; stroke-linecap: round"/>
   </g>
   <g id="patch_82">
    <path d="M 382.181509 120.411325 
Q 374.638427 109.762268 368.387831 100.937897 
" style="fill: none; opacity: 0.6; stroke: #1a73e8; stroke-width: 2; stroke-linecap: round"/>
    <path d="M 369.067851 105.35803 
L 368.387831 100.937897 
L 372.331949 103.04596 
" style="fill: none; opacity: 0.6; stroke: #1a73e8; stroke-width: 2; stroke-linecap: round"/>
   </g>
   <g id="patch_83">
    <path d="M 364.16608 306.175566 
Q 346.750162 315.231843 331.318121 323.256504 
" style="fill: none; opacity: 0.6; stroke: #1a73e8; stroke-width: 2; stroke-linecap: round"/>
    <path d="M 335.789694 323.185527 
L 331.318121 323.256504 
L 333.944283 319.63666 
" style="fill: none; opacity: 0.6; stroke: #1a73e8; stroke-width: 2; stroke-linecap: round"/>
   </g>
   <g id="patch_84">
    <path d="M 332.795295 286.438372 
Q 319.624416 273.267493 308.034676 261.677753 
" style="fill: none; opacity: 0.6; stroke: #1a73e8; stroke-width: 2; stroke-linecap: round"/>
    <path d="M 309.44889 265.920394 
L 308.034676 261.677753 
L 312.277317 263.091967 
" style="fill: none; opacity: 0.6; stroke: #1a73e8; stroke-width: 2; stroke-linecap: round"/>
   </g>
   <g id="patch_85">
    <path d="M 302.092813 486.97471 
Q 304.529157 447.262291 306.828578 409.781743 
" style="fill: none; opacity: 0.6; stroke: #1a73e8; stroke-width: 2; stroke-linecap: round"/>
    <path d="M 304.587392 413.651768 
L 306.828578 409.781743 
L 308.579886 413.896706 
" style="fill: none; opacity: 0.6; stroke: #1a73e8; stroke-width: 2; stroke-linecap: round"/>
   </g>
   <g id="patch_86">
    <path d="M 305.642636 404.177739 
Q 290.200535 389.437551 276.375905 376.241314 
" style="fill: none; opacity: 0.6; stroke: #1a73e8; stroke-width: 2; stroke-linecap: round"/>
    <path d="M 277.888376 380.449928 
L 276.375905 376.241314 
L 280.650279 377.556505 
" style="fill: none; opacity: 0.6; stroke: #1a73e8; stroke-width: 2; stroke-linecap: round"/>
   </g>
   <g id="patch_87">
    <path d="M 174.519207 317.647048 
Q 182.731172 285.040717 190.397032 254.602743 
" style="fill: none; opacity: 0.6; stroke: #1a73e8; stroke-width: 2; stroke-linecap: round"/>
    <path d="M 187.480693 257.993166 
L 190.397032 254.602743 
L 191.359567 258.970068 
" style="fill: none; opacity: 0.6; stroke: #1a73e8; stroke-width: 2; stroke-linecap: round"/>
   </g>
   <g id="patch_88">
    <path d="M 191.431385 248.498152 
Q 191.431385 224.397917 191.431385 202.53375 
" style="fill: none; opacity: 0.6; stroke: #1a73e8; stroke-width: 2; stroke-linecap: round"/>
    <path d="M 189.431385 206.53375 
L 191.431385 202.53375 
L 193.431385 206.53375 
" style="fill: none; opacity: 0.6; stroke: #1a73e8; stroke-width: 2; stroke-linecap: round"/>
   </g>
   <g id="patch_89">
    <path d="M 322.115166 409.82653 
Q 352.633041 328.028619 382.369292 248.325717 
" style="fill: none; opacity: 0.6; stroke: #1a73e8; stroke-width: 2; stroke-linecap: round"/>
    <path d="M 379.097247 251.374278 
L 382.369292 248.325717 
L 382.844913 252.77249 
" style="fill: none; opacity: 0.6; stroke: #1a73e8; stroke-width: 2; stroke-linecap: round"/>
   </g>
   <g id="patch_90">
    <path d="M 382.242151 243.163093 
Q 349.307251 218.766871 318.169158 195.701617 
" style="fill: none; opacity: 0.6; stroke: #1a73e8; stroke-width: 2; stroke-linecap: round"/>
    <path d="M 320.192932 199.689642 
L 318.169158 195.701617 
L 322.573842 196.475413 
" style="fill: none; opacity: 0.6; stroke: #1a73e8; stroke-width: 2; stroke-linecap: round"/>
   </g>
   <g id="patch_91">
    <path d="M 314.081281 191.298681 
Q 300.17891 153.006187 287.039626 116.815526 
" style="fill: none; opacity: 0.6; stroke: #1a73e8; stroke-width: 2; stroke-linecap: round"/>
    <path d="M 286.524739 121.257923 
L 287.039626 116.815526 
L 290.284611 119.892874 
" style="fill: none; opacity: 0.6; stroke: #1a73e8; stroke-width: 2; stroke-linecap: round"/>
   </g>
   <g id="patch_92">
    <path d="M 266.709676 314.564812 
Q 258.471869 314.976702 252.46734 315.276928 
" style="fill: none; opacity: 0.6; stroke: #1a73e8; stroke-width: 2; stroke-linecap: round"/>
    <path d="M 256.562225 317.074683 
L 252.46734 315.276928 
L 256.362475 313.079673 
" style="fill: none; opacity: 0.6; stroke: #1a73e8; stroke-width: 2; stroke-linecap: round"/>
   </g>
   <g id="patch_93">
    <path d="M 248.919701 313.612457 
Q 259.237676 285.298015 268.790061 259.084495 
" style="fill: none; opacity: 0.6; stroke: #1a73e8; stroke-width: 2; stroke-linecap: round"/>
    <path d="M 265.54141 262.157973 
L 268.790061 259.084495 
L 269.299653 263.527502 
" style="fill: none; opacity: 0.6; stroke: #1a73e8; stroke-width: 2; stroke-linecap: round"/>
   </g>
   <g id="patch_94">
    <path d="M 407.988502 143.308311 
Q 395.877074 120.510329 384.814709 99.687054 
" style="fill: none; opacity: 0.6; stroke: #1a73e8; stroke-width: 2; stroke-linecap: round"/>
    <path d="M 384.925098 104.157827 
L 384.814709 99.687054 
L 388.457561 102.281206 
" style="fill: none; opacity: 0.6; stroke: #1a73e8; stroke-width: 2; stroke-linecap: round"/>
   </g>
   <g id="patch_95">
    <path d="M 310.067664 490.644961 
Q 301.713718 464.151016 294.032202 439.789637 
" style="fill: none; opacity: 0.6; stroke: #1a73e8; stroke-width: 2; stroke-linecap: round"/>
    <path d="M 293.327657 444.205927 
L 294.032202 439.789637 
L 297.142507 443.003046 
" style="fill: none; opacity: 0.6; stroke: #1a73e8; stroke-width: 2; stroke-linecap: round"/>
   </g>
   <g id="patch_96">
    <path d="M 291.443357 434.239045 
Q 241.325173 376.640536 192.674792 320.728904 
" style="fill: none; opacity: 0.6; stroke: #1a73e8; stroke-width: 2; stroke-linecap: round"/>
    <path d="M 193.791688 325.059324 
L 192.674792 320.728904 
L 196.809266 322.433639 
" style="fill: none; opacity: 0.6; stroke: #1a73e8; stroke-width: 2; stroke-linecap: round"/>
   </g>
   <g id="patch_97">
    <path d="M 299.888529 374.551396 
Q 311.438761 364.360015 321.312304 355.648065 
" style="fill: none; opacity: 0.6; stroke: #1a73e8; stroke-width: 2; stroke-linecap: round"/>
    <path d="M 316.989709 356.794876 
L 321.312304 355.648065 
L 319.636196 359.794227 
" style="fill: none; opacity: 0.6; stroke: #1a73e8; stroke-width: 2; stroke-linecap: round"/>
   </g>
   <g id="patch_98">
    <path d="M 330.737378 226.014904 
Q 329.092278 217.995041 327.896503 212.165636 
" style="fill: none; opacity: 0.6; stroke: #1a73e8; stroke-width: 2; stroke-linecap: round"/>
    <path d="M 326.741074 216.485935 
L 327.896503 212.165636 
L 330.659485 215.682158 
" style="fill: none; opacity: 0.6; stroke: #1a73e8; stroke-width: 2; stroke-linecap: round"/>
   </g>
   <g id="patch_99">
    <path d="M 315.606531 124.148152 
Q 314.252262 109.251184 313.100436 96.581101 
" style="fill: none; opacity: 0.6; stroke: #1a73e8; stroke-width: 2; stroke-linecap: round"/>
    <path d="M 311.470792 100.745746 
L 313.100436 96.581101 
L 315.454365 100.383603 
" style="fill: none; opacity: 0.6; stroke: #1a73e8; stroke-width: 2; stroke-linecap: round"/>
   </g>
   <g id="patch_100">
    <path d="M 86.570073 320.094277 
Q 78.845051 320.094277 73.356097 320.094277 
" style="fill: none; opacity: 0.6; stroke: #1a73e8; stroke-width: 2; stroke-linecap: round"/>
    <path d="M 77.356097 322.094277 
L 73.356097 320.094277 
L 77.356097 318.094277 
" style="fill: none; opacity: 0.6; stroke: #1a73e8; stroke-width: 2; stroke-linecap: round"/>
   </g>
   <g id="patch_101">
    <path d="M 310.376297 642.828916 
Q 314.25326 652.736711 317.315402 660.562184 
" style="fill: none; opacity: 0.6; stroke: #1a73e8; stroke-width: 2; stroke-linecap: round"/>
    <path d="M 317.72029 656.108414 
L 317.315402 660.562184 
L 313.995319 657.566011 
" style="fill: none; opacity: 0.6; stroke: #1a73e8; stroke-width: 2; stroke-linecap: round"/>
   </g>
   <g id="patch_102">
    <path d="M 320.341754 663.167368 
Q 357.751562 629.449317 393.500402 597.228323 
" style="fill: none; opacity: 0.6; stroke: #1a73e8; stroke-width: 2; stroke-linecap: round"/>
    <path d="M 389.190161 598.420725 
L 393.500402 597.228323 
L 391.868179 601.391957 
" style="fill: none; opacity: 0.6; stroke: #1a73e8; stroke-width: 2; stroke-linecap: round"/>
   </g>
   <g id="patch_103">
    <path d="M 371.479281 225.562997 
Q 369.010295 217.744539 367.214658 212.058357 
" style="fill: none; opacity: 0.6; stroke: #1a73e8; stroke-width: 2; stroke-linecap: round"/>
    <path d="M 366.512018 216.47495 
L 367.214658 212.058357 
L 370.326349 215.270425 
" style="fill: none; opacity: 0.6; stroke: #1a73e8; stroke-width: 2; stroke-linecap: round"/>
   </g>
   <g id="patch_104">
    <path d="M 364.993479 206.25544 
Q 335.490064 151.215454 307.04306 98.146254 
" style="fill: none; opacity: 0.6; stroke: #1a73e8; stroke-width: 2; stroke-linecap: round"/>
    <path d="M 307.170103 102.616585 
L 307.04306 98.146254 
L 310.695551 100.726818 
" style="fill: none; opacity: 0.6; stroke: #1a73e8; stroke-width: 2; stroke-linecap: round"/>
   </g>
   <g id="line2d_8">
    <defs>
     <path id="mf0433c843f" d="M -2 4 
L 0 2 
L 2 4 
L 4 2 
L 2 0 
L 4 -2 
L 2 -4 
L 0 -2 
L -2 -4 
L -4 -2 
L -2 0 
L -4 2 
z
" style="stroke: #e74c3c; stroke-width: 0.5; stroke-linejoin: miter"/>
    </defs>
    <g clip-path="url(#p08e2867b19)">
     <use xlink:href="#mf0433c843f" x="402.273969" y="118.463262" style="fill: #e74c3c; stroke: #e74c3c; stroke-width: 0.5; stroke-linejoin: miter"/>
    </g>
   </g>
   <g id="line2d_9">
    <g clip-path="url(#p08e2867b19)">
     <use xlink:href="#mf0433c843f" x="48.140308" y="123.5808" style="fill: #e74c3c; stroke: #e74c3c; stroke-width: 0.5; stroke-linejoin: miter"/>
    </g>
   </g>
   <g id="line2d_10">
    <g clip-path="url(#p08e2867b19)">
     <use xlink:href="#mf0433c843f" x="304.528985" y="443.426954" style="fill: #e74c3c; stroke: #e74c3c; stroke-width: 0.5; stroke-linejoin: miter"/>
    </g>
   </g>
   <g id="PathCollection_1">
    <path d="M 367.474708 309.213797 
C 368.660732 309.213797 369.79834 308.742585 370.636985 307.903939 
C 371.475631 307.065293 371.946844 305.927686 371.946844 304.741662 
C 371.946844 303.555637 371.475631 302.41803 370.636985 301.579384 
C 369.79834 300.740738 368.660732 300.269526 367.474708 300.269526 
C 366.288683 300.269526 365.151076 300.740738 364.31243 301.579384 
C 363.473784 302.41803 363.002572 303.555637 363.002572 304.741662 
C 363.002572 305.927686 363.473784 307.065293 364.31243 307.903939 
C 365.151076 308.742585 366.288683 309.213797 367.474708 309.213797 
z
" clip-path="url(#p08e2867b19)" style="fill: #2ecc71"/>
   </g>
   <g id="PathCollection_2">
    <path d="M 206.272246 223.239151 
C 207.45827 223.239151 208.595878 222.767939 209.434524 221.929293 
C 210.27317 221.090647 210.744382 219.95304 210.744382 218.767015 
C 210.744382 217.580991 210.27317 216.443384 209.434524 215.604738 
C 208.595878 214.766092 207.45827 214.294879 206.272246 214.294879 
C 205.086222 214.294879 203.948614 214.766092 203.109968 215.604738 
C 202.271323 216.443384 201.80011 217.580991 201.80011 218.767015 
C 201.80011 219.95304 202.271323 221.090647 203.109968 221.929293 
C 203.948614 222.767939 205.086222 223.239151 206.272246 223.239151 
z
" clip-path="url(#p08e2867b19)" style="fill: #2ecc71"/>
   </g>
   <g id="line2d_11">
    <g clip-path="url(#p08e2867b19)">
     <use xlink:href="#mf0433c843f" x="365.939446" y="97.481354" style="fill: #e74c3c; stroke: #e74c3c; stroke-width: 0.5; stroke-linejoin: miter"/>
    </g>
   </g>
   <g id="line2d_12">
    <g clip-path="url(#p08e2867b19)">
     <use xlink:href="#mf0433c843f" x="305.040738" y="258.683815" style="fill: #e74c3c; stroke: #e74c3c; stroke-width: 0.5; stroke-linejoin: miter"/>
    </g>
   </g>
   <g id="PathCollection_3">
    <path d="M 307.087754 410.029305 
C 308.273778 410.029305 309.411386 409.558093 310.250032 408.719447 
C 311.088677 407.880801 311.55989 406.743194 311.55989 405.557169 
C 311.55989 404.371145 311.088677 403.233537 310.250032 402.394892 
C 309.411386 401.556246 308.273778 401.085033 307.087754 401.085033 
C 305.90173 401.085033 304.764122 401.556246 303.925476 402.394892 
C 303.08683 403.233537 302.615618 404.371145 302.615618 405.557169 
C 302.615618 406.743194 303.08683 407.880801 303.925476 408.719447 
C 304.764122 409.558093 305.90173 410.029305 307.087754 410.029305 
z
" clip-path="url(#p08e2867b19)" style="fill: #2ecc71"/>
   </g>
   <g id="PathCollection_4">
    <path d="M 191.431385 254.96789 
C 192.617409 254.96789 193.755016 254.496677 194.593662 253.658032 
C 195.432308 252.819386 195.903521 251.681778 195.903521 250.495754 
C 195.903521 249.30973 195.432308 248.172122 194.593662 247.333476 
C 193.755016 246.49483 192.617409 246.023618 191.431385 246.023618 
C 190.24536 246.023618 189.107753 246.49483 188.269107 247.333476 
C 187.430461 248.172122 186.959249 249.30973 186.959249 250.495754 
C 186.959249 251.681778 187.430461 252.819386 188.269107 253.658032 
C 189.107753 254.496677 190.24536 254.96789 191.431385 254.96789 
z
" clip-path="url(#p08e2867b19)" style="fill: #2ecc71"/>
   </g>
   <g id="PathCollection_5">
    <path d="M 321.416862 416.170351 
C 322.602886 416.170351 323.740493 415.699139 324.579139 414.860493 
C 325.417785 414.021847 325.888997 412.88424 325.888997 411.698215 
C 325.888997 410.512191 325.417785 409.374584 324.579139 408.535938 
C 323.740493 407.697292 322.602886 407.226079 321.416862 407.226079 
C 320.230837 407.226079 319.09323 407.697292 318.254584 408.535938 
C 317.415938 409.374584 316.944726 410.512191 316.944726 411.698215 
C 316.944726 412.88424 317.415938 414.021847 318.254584 414.860493 
C 319.09323 415.699139 320.230837 416.170351 321.416862 416.170351 
z
" clip-path="url(#p08e2867b19)" style="fill: #2ecc71"/>
   </g>
   <g id="PathCollection_6">
    <path d="M 383.850831 248.826844 
C 385.036855 248.826844 386.174463 248.355631 387.013108 247.516985 
C 387.851754 246.67834 388.322967 245.540732 388.322967 244.354708 
C 388.322967 243.168683 387.851754 242.031076 387.013108 241.19243 
C 386.174463 240.353784 385.036855 239.882572 383.850831 239.882572 
C 382.664806 239.882572 381.527199 240.353784 380.688553 241.19243 
C 379.849907 242.031076 379.378695 243.168683 379.378695 244.354708 
C 379.378695 245.540732 379.849907 246.67834 380.688553 247.516985 
C 381.527199 248.355631 382.664806 248.826844 383.850831 248.826844 
z
" clip-path="url(#p08e2867b19)" style="fill: #2ecc71"/>
   </g>
   <g id="PathCollection_7">
    <path d="M 314.764062 197.651459 
C 315.950086 197.651459 317.087693 197.180247 317.926339 196.341601 
C 318.764985 195.502955 319.236197 194.365347 319.236197 193.179323 
C 319.236197 191.993299 318.764985 190.855691 317.926339 190.017045 
C 317.087693 189.1784 315.950086 188.707187 314.764062 188.707187 
C 313.578037 188.707187 312.44043 189.1784 311.601784 190.017045 
C 310.763138 190.855691 310.291926 191.993299 310.291926 193.179323 
C 310.291926 194.365347 310.763138 195.502955 311.601784 196.341601 
C 312.44043 197.180247 313.578037 197.651459 314.764062 197.651459 
z
" clip-path="url(#p08e2867b19)" style="fill: #2ecc71"/>
   </g>
   <g id="PathCollection_8">
    <path d="M 285.594092 117.306105 
C 286.780117 117.306105 287.917724 116.834893 288.75637 115.996247 
C 289.595016 115.157601 290.066228 114.019994 290.066228 112.833969 
C 290.066228 111.647945 289.595016 110.510337 288.75637 109.671692 
C 287.917724 108.833046 286.780117 108.361833 285.594092 108.361833 
C 284.408068 108.361833 283.27046 108.833046 282.431815 109.671692 
C 281.593169 110.510337 281.121956 111.647945 281.121956 112.833969 
C 281.121956 114.019994 281.593169 115.157601 282.431815 115.996247 
C 283.27046 116.834893 284.408068 117.306105 285.594092 117.306105 
z
" clip-path="url(#p08e2867b19)" style="fill: #2ecc71"/>
   </g>
   <g id="PathCollection_9">
    <path d="M 256.424123 360.900936 
C 257.610147 360.900936 258.747755 360.429723 259.586401 359.591078 
C 260.425047 358.752432 260.896259 357.614824 260.896259 356.4288 
C 260.896259 355.242776 260.425047 354.105168 259.586401 353.266522 
C 258.747755 352.427877 257.610147 351.956664 256.424123 351.956664 
C 255.238099 351.956664 254.100491 352.427877 253.261845 353.266522 
C 252.4232 354.105168 251.951987 355.242776 251.951987 356.4288 
C 251.951987 357.614824 252.4232 358.752432 253.261845 359.591078 
C 254.100491 360.429723 255.238099 360.900936 256.424123 360.900936 
z
" clip-path="url(#p08e2867b19)" style="fill: #2ecc71"/>
   </g>
   <g id="PathCollection_10">
    <path d="M 268.706215 318.937121 
C 269.89224 318.937121 271.029847 318.465908 271.868493 317.627262 
C 272.707139 316.788616 273.178351 315.651009 273.178351 314.464985 
C 273.178351 313.27896 272.707139 312.141353 271.868493 311.302707 
C 271.029847 310.464061 269.89224 309.992849 268.706215 309.992849 
C 267.520191 309.992849 266.382584 310.464061 265.543938 311.302707 
C 264.705292 312.141353 264.234079 313.27896 264.234079 314.464985 
C 264.234079 315.651009 264.705292 316.788616 265.543938 317.627262 
C 266.382584 318.465908 267.520191 318.937121 268.706215 318.937121 
z
" clip-path="url(#p08e2867b19)" style="fill: #2ecc71"/>
   </g>
   <g id="PathCollection_11">
    <path d="M 248.236062 319.960628 
C 249.422086 319.960628 250.559693 319.489416 251.398339 318.65077 
C 252.236985 317.812124 252.708197 316.674517 252.708197 315.488492 
C 252.708197 314.302468 252.236985 313.16486 251.398339 312.326215 
C 250.559693 311.487569 249.422086 311.016356 248.236062 311.016356 
C 247.050037 311.016356 245.91243 311.487569 245.073784 312.326215 
C 244.235138 313.16486 243.763926 314.302468 243.763926 315.488492 
C 243.763926 316.674517 244.235138 317.812124 245.073784 318.65077 
C 245.91243 319.489416 247.050037 319.960628 248.236062 319.960628 
z
" clip-path="url(#p08e2867b19)" style="fill: #2ecc71"/>
   </g>
   <g id="PathCollection_12">
    <path d="M 408.926769 149.546597 
C 410.112794 149.546597 411.250401 149.075385 412.089047 148.236739 
C 412.927693 147.398093 413.398905 146.260486 413.398905 145.074462 
C 413.398905 143.888437 412.927693 142.75083 412.089047 141.912184 
C 411.250401 141.073538 410.112794 140.602326 408.926769 140.602326 
C 407.740745 140.602326 406.603137 141.073538 405.764492 141.912184 
C 404.925846 142.75083 404.454633 143.888437 404.454633 145.074462 
C 404.454633 146.260486 404.925846 147.398093 405.764492 148.236739 
C 406.603137 149.075385 407.740745 149.546597 408.926769 149.546597 
z
" clip-path="url(#p08e2867b19)" style="fill: #2ecc71"/>
   </g>
   <g id="PathCollection_13">
    <path d="M 292.758646 440.222782 
C 293.94467 440.222782 295.082278 439.75157 295.920924 438.912924 
C 296.75957 438.074278 297.230782 436.93667 297.230782 435.750646 
C 297.230782 434.564622 296.75957 433.427014 295.920924 432.588368 
C 295.082278 431.749723 293.94467 431.27851 292.758646 431.27851 
C 291.572622 431.27851 290.435014 431.749723 289.596368 432.588368 
C 288.757723 433.427014 288.28651 434.564622 288.28651 435.750646 
C 288.28651 436.93667 288.757723 438.074278 289.596368 438.912924 
C 290.435014 439.75157 291.572622 440.222782 292.758646 440.222782 
z
" clip-path="url(#p08e2867b19)" style="fill: #2ecc71"/>
   </g>
   <g id="line2d_13">
    <g clip-path="url(#p08e2867b19)">
     <use xlink:href="#mf0433c843f" x="312.717046" y="92.363815" style="fill: #e74c3c; stroke: #e74c3c; stroke-width: 0.5; stroke-linejoin: miter"/>
    </g>
   </g>
   <g id="PathCollection_14">
    <path d="M 159.190892 226.821428 
C 160.376917 226.821428 161.514524 226.350216 162.35317 225.51157 
C 163.191816 224.672924 163.663028 223.535317 163.663028 222.349292 
C 163.663028 221.163268 163.191816 220.02566 162.35317 219.187015 
C 161.514524 218.348369 160.376917 217.877156 159.190892 217.877156 
C 158.004868 217.877156 156.86726 218.348369 156.028615 219.187015 
C 155.189969 220.02566 154.718756 221.163268 154.718756 222.349292 
C 154.718756 223.535317 155.189969 224.672924 156.028615 225.51157 
C 156.86726 226.350216 158.004868 226.821428 159.190892 226.821428 
z
" clip-path="url(#p08e2867b19)" style="fill: #2ecc71"/>
   </g>
   <g id="line2d_14">
    <g clip-path="url(#p08e2867b19)">
     <use xlink:href="#mf0433c843f" x="69.122215" y="320.094277" style="fill: #e74c3c; stroke: #e74c3c; stroke-width: 0.5; stroke-linejoin: miter"/>
    </g>
   </g>
   <g id="PathCollection_15">
    <path d="M 318.858092 668.976751 
C 320.044117 668.976751 321.181724 668.505539 322.02037 667.666893 
C 322.859016 666.828247 323.330228 665.69064 323.330228 664.504615 
C 323.330228 663.318591 322.859016 662.180984 322.02037 661.342338 
C 321.181724 660.503692 320.044117 660.032479 318.858092 660.032479 
C 317.672068 660.032479 316.53446 660.503692 315.695815 661.342338 
C 314.857169 662.180984 314.385956 663.318591 314.385956 664.504615 
C 314.385956 665.69064 314.857169 666.828247 315.695815 667.666893 
C 316.53446 668.505539 317.672068 668.976751 318.858092 668.976751 
z
" clip-path="url(#p08e2867b19)" style="fill: #2ecc71"/>
   </g>
   <g id="PathCollection_16">
    <path d="M 365.939446 212.492321 
C 367.12547 212.492321 368.263078 212.021108 369.101724 211.182462 
C 369.94037 210.343816 370.411582 209.206209 370.411582 208.020185 
C 370.411582 206.83416 369.94037 205.696553 369.101724 204.857907 
C 368.263078 204.019261 367.12547 203.548049 365.939446 203.548049 
C 364.753422 203.548049 363.615814 204.019261 362.777168 204.857907 
C 361.938523 205.696553 361.46731 206.83416 361.46731 208.020185 
C 361.46731 209.206209 361.938523 210.343816 362.777168 211.182462 
C 363.615814 212.021108 364.753422 212.492321 365.939446 212.492321 
z
" clip-path="url(#p08e2867b19)" style="fill: #2ecc71"/>
   </g>
   <g id="PathCollection_17">
    <path d="M 206.272246 416.590787 
L 212.188326 410.674708 
L 206.272246 404.758628 
L 200.356166 410.674708 
z
" clip-path="url(#p08e2867b19)" style="fill: #e67e22"/>
   </g>
   <g id="PathCollection_18">
    <path d="M 367.474708 310.657741 
L 373.390787 304.741662 
L 367.474708 298.825582 
L 361.558628 304.741662 
z
" clip-path="url(#p08e2867b19)" style="fill: #e67e22"/>
   </g>
   <g id="PathCollection_19">
    <path d="M 316.299323 250.782541 
L 322.215403 244.866462 
L 316.299323 238.950382 
L 310.383243 244.866462 
z
" clip-path="url(#p08e2867b19)" style="fill: #e67e22"/>
   </g>
   <g id="PathCollection_20">
    <path d="M 72.704492 310.657741 
L 78.620572 304.741662 
L 72.704492 298.825582 
L 66.788413 304.741662 
z
" clip-path="url(#p08e2867b19)" style="fill: #e67e22"/>
   </g>
   <g id="PathCollection_21">
    <path d="M 111.086031 458.554603 
L 117.002111 452.638523 
L 111.086031 446.722443 
L 105.169951 452.638523 
z
" clip-path="url(#p08e2867b19)" style="fill: #e67e22"/>
   </g>
   <g id="PathCollection_22">
    <path d="M 212.925046 353.133311 
L 218.841126 347.217231 
L 212.925046 341.301151 
L 207.008966 347.217231 
z
" clip-path="url(#p08e2867b19)" style="fill: #e67e22"/>
   </g>
   <g id="PathCollection_23">
    <path d="M 316.811077 456.507587 
L 322.727157 450.591508 
L 316.811077 444.675428 
L 310.894997 450.591508 
z
" clip-path="url(#p08e2867b19)" style="fill: #e67e22"/>
   </g>
   <g id="PathCollection_24">
    <path d="M 192.454892 270.740941 
L 198.370972 264.824862 
L 192.454892 258.908782 
L 186.538813 264.824862 
z
" clip-path="url(#p08e2867b19)" style="fill: #e67e22"/>
   </g>
   <g id="PathCollection_25">
    <path d="M 176.078769 206.259957 
L 181.994849 200.343877 
L 176.078769 194.427797 
L 170.162689 200.343877 
z
" clip-path="url(#p08e2867b19)" style="fill: #e67e22"/>
   </g>
   <g id="PathCollection_26">
    <path d="M 208.831015 374.115218 
L 214.747095 368.199138 
L 208.831015 362.283059 
L 202.914936 368.199138 
z
" clip-path="url(#p08e2867b19)" style="fill: #e67e22"/>
   </g>
   <g id="PathCollection_27">
    <path d="M 273.312 352.621557 
L 279.22808 346.705477 
L 273.312 340.789397 
L 267.39592 346.705477 
z
" clip-path="url(#p08e2867b19)" style="fill: #e67e22"/>
   </g>
   <g id="PathCollection_28">
    <path d="M 200.642954 363.880141 
L 206.559034 357.964062 
L 200.642954 352.047982 
L 194.726874 357.964062 
z
" clip-path="url(#p08e2867b19)" style="fill: #e67e22"/>
   </g>
   <g id="PathCollection_29">
    <path d="M 211.901538 255.90008 
L 217.817618 249.984 
L 211.901538 244.06792 
L 205.985459 249.984 
z
" clip-path="url(#p08e2867b19)" style="fill: #e67e22"/>
   </g>
   <g id="PathCollection_30">
    <path d="M 132.579692 372.068203 
L 138.495772 366.152123 
L 132.579692 360.236043 
L 126.663613 366.152123 
z
" clip-path="url(#p08e2867b19)" style="fill: #e67e22"/>
   </g>
   <g id="PathCollection_31">
    <path d="M 372.080492 577.281495 
L 377.996572 571.365415 
L 372.080492 565.449336 
L 366.164413 571.365415 
z
" clip-path="url(#p08e2867b19)" style="fill: #e67e22"/>
   </g>
   <g id="PathCollection_32">
    <path d="M 314.252308 256.411834 
L 320.168387 250.495754 
L 314.252308 244.579674 
L 308.336228 250.495754 
z
" clip-path="url(#p08e2867b19)" style="fill: #e67e22"/>
   </g>
   <g id="PathCollection_33">
    <path d="M 200.642954 549.135034 
L 206.559034 543.218954 
L 200.642954 537.302874 
L 194.726874 543.218954 
z
" clip-path="url(#p08e2867b19)" style="fill: #e67e22"/>
   </g>
   <g id="PathCollection_34">
    <path d="M 295.317415 429.896387 
L 301.233495 423.980308 
L 295.317415 418.064228 
L 289.401336 423.980308 
z
" clip-path="url(#p08e2867b19)" style="fill: #e67e22"/>
   </g>
   <g id="PathCollection_35">
    <path d="M 232.371692 236.453434 
L 238.287772 230.537354 
L 232.371692 224.621274 
L 226.455613 230.537354 
z
" clip-path="url(#p08e2867b19)" style="fill: #e67e22"/>
   </g>
   <g id="PathCollection_36">
    <path d="M 67.0752 399.191157 
L 72.99128 393.275077 
L 67.0752 387.358997 
L 61.15912 393.275077 
z
" clip-path="url(#p08e2867b19)" style="fill: #e67e22"/>
   </g>
  </g>
  <g id="axes_2">
   <g id="text_1">
    <text style="font-style: italic; font-weight: 700; font-size: 9px; font-family: 'DejaVu Sans', 'Bitstream Vera Sans', 'Computer Modern Sans Serif', 'Lucida Grande', 'Verdana', 'Geneva', 'Lucid', 'Arial', 'Helvetica', 'Avant Garde', sans-serif; text-anchor: start; fill: #333333" x="559.829037" y="137.072194" transform="rotate(-0 559.829037 137.072194)">CARRIES</text>
   </g>
   <g id="text_2">
    <text style="font-weight: 700; font-size: 28px; font-family: 'Georgia'; text-anchor: start" x="559.829037" y="178.01105" transform="rotate(-0 559.829037 178.01105)">32.0</text>
   </g>
   <g id="text_3">
    <text style="font-size: 8px; font-family: 'Georgia'; text-anchor: start" x="634.725639" y="169.5451" transform="rotate(-0 634.725639 169.5451)">per 90 min</text>
   </g>
   <g id="text_4">
    <text style="font-size: 9px; font-family: 'DejaVu Sans', 'Bitstream Vera Sans', 'Computer Modern Sans Serif', 'Lucida Grande', 'Verdana', 'Geneva', 'Lucid', 'Arial', 'Helvetica', 'Avant Garde', sans-serif; text-anchor: start; fill: #666666" x="559.829037" y="203.600194" transform="rotate(-0 559.829037 203.600194)">187.9m progressive per 90 min</text>
   </g>
   <g id="text_5">
    <text style="font-style: italic; font-weight: 700; font-size: 9px; font-family: 'DejaVu Sans', 'Bitstream Vera Sans', 'Computer Modern Sans Serif', 'Lucida Grande', 'Verdana', 'Geneva', 'Lucid', 'Arial', 'Helvetica', 'Avant Garde', sans-serif; text-anchor: start; fill: #333333" x="559.829037" y="256.822594" transform="rotate(-0 559.829037 256.822594)">DRIBBLES</text>
   </g>
   <g id="text_6">
    <text style="font-weight: 700; font-size: 28px; font-family: 'Georgia'; text-anchor: start" x="559.829037" y="297.76145" transform="rotate(-0 559.829037 297.76145)">7.7</text>
   </g>
   <g id="text_7">
    <text style="font-size: 8px; font-family: 'Georgia'; text-anchor: start" x="624.296998" y="289.2955" transform="rotate(-0 624.296998 289.2955)">per 90 min</text>
   </g>
   <g id="text_8">
    <text style="font-size: 9px; font-family: 'DejaVu Sans', 'Bitstream Vera Sans', 'Computer Modern Sans Serif', 'Lucida Grande', 'Verdana', 'Geneva', 'Lucid', 'Arial', 'Helvetica', 'Avant Garde', sans-serif; text-anchor: start; fill: #666666" x="559.829037" y="323.350594" transform="rotate(-0 559.829037 323.350594)">70% overall success</text>
   </g>
   <g id="text_9">
    <text style="font-size: 9px; font-family: 'DejaVu Sans', 'Bitstream Vera Sans', 'Computer Modern Sans Serif', 'Lucida Grande', 'Verdana', 'Geneva', 'Lucid', 'Arial', 'Helvetica', 'Avant Garde', sans-serif; text-anchor: start; fill: #666666" x="559.829037" y="336.656194" transform="rotate(-0 559.829037 336.656194)">62% in attacking third</text>
   </g>
   <g id="text_10">
    <text style="font-style: italic; font-weight: 700; font-size: 9px; font-family: 'DejaVu Sans', 'Bitstream Vera Sans', 'Computer Modern Sans Serif', 'Lucida Grande', 'Verdana', 'Geneva', 'Lucid', 'Arial', 'Helvetica', 'Avant Garde', sans-serif; text-anchor: start; fill: #333333" x="559.829037" y="389.878594" transform="rotate(-0 559.829037 389.878594)">FOULS WON</text>
   </g>
   <g id="text_11">
    <text style="font-weight: 700; font-size: 28px; font-family: 'Georgia'; text-anchor: start" x="559.829037" y="430.81745" transform="rotate(-0 559.829037 430.81745)">8.0</text>
   </g>
   <g id="text_12">
    <text style="font-size: 8px; font-family: 'Georgia'; text-anchor: start" x="624.296998" y="422.3515" transform="rotate(-0 624.296998 422.3515)">per 90 min</text>
   </g>
   <g id="text_13">
    <text style="font-size: 9px; font-family: 'DejaVu Sans', 'Bitstream Vera Sans', 'Computer Modern Sans Serif', 'Lucida Grande', 'Verdana', 'Geneva', 'Lucid', 'Arial', 'Helvetica', 'Avant Garde', sans-serif; text-anchor: start; fill: #666666" x="559.829037" y="456.406594" transform="rotate(-0 559.829037 456.406594)">2 yellow cards won</text>
   </g>
   <g id="legend_1">
    <g id="line2d_15">
     <path d="M 568.829037 575.859812 
L 578.829037 575.859812 
L 588.829037 575.859812 
" style="fill: none; stroke: #1a73e8; stroke-width: 2; stroke-linecap: square"/>
    </g>
    <g id="text_14">
     <text style="font-size: 10px; font-family: 'DejaVu Sans', 'Bitstream Vera Sans', 'Computer Modern Sans Serif', 'Lucida Grande', 'Verdana', 'Geneva', 'Lucid', 'Arial', 'Helvetica', 'Avant Garde', sans-serif; text-anchor: start" x="594.829037" y="579.359812" transform="rotate(-0 594.829037 579.359812)">Dribbling carry</text>
    </g>
    <g id="line2d_16">
     <path d="M 568.829037 590.537937 
L 578.829037 590.537937 
L 588.829037 590.537937 
" style="fill: none; stroke-dasharray: 3.7,1.6; stroke-dashoffset: 0; stroke: #a5a5a5"/>
    </g>
    <g id="text_15">
     <text style="font-size: 10px; font-family: 'DejaVu Sans', 'Bitstream Vera Sans', 'Computer Modern Sans Serif', 'Lucida Grande', 'Verdana', 'Geneva', 'Lucid', 'Arial', 'Helvetica', 'Avant Garde', sans-serif; text-anchor: start" x="594.829037" y="594.037937" transform="rotate(-0 594.829037 594.037937)">Regular carry</text>
    </g>
    <g id="line2d_17">
     <path d="M 568.829037 605.216062 
L 578.829037 605.216062 
L 588.829037 605.216062 
" style="fill: none"/>
     <defs>
      <path id="m572fd3ea41" d="M 0 3.5 
C 0.928211 3.5 1.81853 3.131218 2.474874 2.474874 
C 3.131218 1.81853 3.5 0.928211 3.5 0 
C 3.5 -0.928211 3.131218 -1.81853 2.474874 -2.474874 
C 1.81853 -3.131218 0.928211 -3.5 0 -3.5 
C -0.928211 -3.5 -1.81853 -3.131218 -2.474874 -2.474874 
C -3.131218 -1.81853 -3.5 -0.928211 -3.5 0 
C -3.5 0.928211 -3.131218 1.81853 -2.474874 2.474874 
C -1.81853 3.131218 -0.928211 3.5 0 3.5 
z
" style="stroke: #000000; stroke-opacity: 0"/>
     </defs>
     <g>
      <use xlink:href="#m572fd3ea41" x="578.829037" y="605.216062" style="fill: #2ecc71; stroke: #000000; stroke-opacity: 0"/>
     </g>
    </g>
    <g id="text_16">
     <text style="font-size: 10px; font-family: 'DejaVu Sans', 'Bitstream Vera Sans', 'Computer Modern Sans Serif', 'Lucida Grande', 'Verdana', 'Geneva', 'Lucid', 'Arial', 'Helvetica', 'Avant Garde', sans-serif; text-anchor: start" x="594.829037" y="608.716062" transform="rotate(-0 594.829037 608.716062)">Successful dribble</text>
    </g>
    <g id="line2d_18">
     <path d="M 568.829037 619.894187 
L 578.829037 619.894187 
L 588.829037 619.894187 
" style="fill: none"/>
     <g>
      <use xlink:href="#mf0433c843f" x="578.829037" y="619.894187" style="fill: #e74c3c; stroke: #e74c3c; stroke-width: 0.5; stroke-linejoin: miter"/>
     </g>
    </g>
    <g id="text_17">
     <text style="font-size: 10px; font-family: 'DejaVu Sans', 'Bitstream Vera Sans', 'Computer Modern Sans Serif', 'Lucida Grande', 'Verdana', 'Geneva', 'Lucid', 'Arial', 'Helvetica', 'Avant Garde', sans-serif; text-anchor: start" x="594.829037" y="623.394187" transform="rotate(-0 594.829037 623.394187)">Failed dribble</text>
    </g>
    <g id="line2d_19">
     <path d="M 568.829037 634.572312 
L 578.829037 634.572312 
L 588.829037 634.572312 
" style="fill: none"/>
     <defs>
      <path id="mdd3a0b20dd" d="M -0 4.949747 
L 4.949747 0 
L 0 -4.949747 
L -4.949747 -0 
z
" style="stroke: #000000; stroke-opacity: 0; stroke-linejoin: miter"/>
     </defs>
     <g>
      <use xlink:href="#mdd3a0b20dd" x="578.829037" y="634.572312" style="fill: #e67e22; stroke: #000000; stroke-opacity: 0; stroke-linejoin: miter"/>
     </g>
    </g>
    <g id="text_18">
     <text style="font-size: 10px; font-family: 'DejaVu Sans', 'Bitstream Vera Sans', 'Computer Modern Sans Serif', 'Lucida Grande', 'Verdana', 'Geneva', 'Lucid', 'Arial', 'Helvetica', 'Avant Garde', sans-serif; text-anchor: start" x="594.829037" y="638.072312" transform="rotate(-0 594.829037 638.072312)">Foul won</text>
    </g>
   </g>
  </g>
  <g id="text_19">
   <text style="font-weight: 700; font-size: 23px; font-family: 'Georgia'; text-anchor: middle" x="331.071755" y="24.586562" transform="rotate(-0 331.071755 24.586562)">Maradona′s On-Ball Events | Last 3 Games in ′86 WC</text>
  </g>
  <g id="text_20">
   <text style="font-size: 12px; font-family: 'Georgia'; text-anchor: middle" x="331.071755" y="42.19125" transform="rotate(-0 331.071755 42.19125)">BY @shawnhdx0710</text>
  </g>
 </g>
 <defs>
  <clipPath id="p08e2867b19">
   <rect x="7.2" y="50.4" width="460.578462" height="665.28"/>
  </clipPath>
 </defs>
</svg>
